<mxfile host="app.diagrams.net" modified="2023-12-17T18:28:34.686Z" agent="Mozilla/5.0 (Windows NT 10.0; Win64; x64) AppleWebKit/537.36 (KHTML, like Gecko) Chrome/120.0.0.0 Safari/537.36" etag="hcXL56c9tA_26mUDlgyd" version="22.1.11" type="device">
  <diagram name="Page-1" id="2CNQCeX9BAJ8XAPQZo6j">
    <mxGraphModel dx="683" dy="390" grid="1" gridSize="10" guides="1" tooltips="1" connect="1" arrows="1" fold="1" page="1" pageScale="1" pageWidth="1169" pageHeight="827" background="none" math="0" shadow="0">
      <root>
        <mxCell id="0" />
        <mxCell id="1" parent="0" />
        <mxCell id="GzG1-bQiRBQ7sTFtrRv--23" style="edgeStyle=orthogonalEdgeStyle;rounded=0;orthogonalLoop=1;jettySize=auto;html=1;exitX=0.25;exitY=0;exitDx=0;exitDy=0;entryX=1;entryY=0.5;entryDx=0;entryDy=0;endArrow=none;endFill=0;" parent="1" source="4EoIY29dNoBSYB-6nft4-25" target="24WfkbDJMfI8mmHEkIdc-21" edge="1">
          <mxGeometry relative="1" as="geometry">
            <mxPoint x="960" y="393" as="targetPoint" />
          </mxGeometry>
        </mxCell>
        <mxCell id="4EoIY29dNoBSYB-6nft4-25" value="Pilota" style="html=1;align=center;fontStyle=0;labelBackgroundColor=none;fontColor=default;whiteSpace=wrap;labelBorderColor=none;verticalAlign=middle;horizontal=1;fontFamily=Helvetica;" parent="1" vertex="1">
          <mxGeometry x="935" y="472" width="100" height="40" as="geometry" />
        </mxCell>
        <mxCell id="4EoIY29dNoBSYB-6nft4-26" value="" style="endArrow=oval;html=1;rounded=0;exitX=0.1;exitY=0;exitDx=0;exitDy=0;exitPerimeter=0;endFill=0;labelBackgroundColor=none;fontColor=default;" parent="1" target="4EoIY29dNoBSYB-6nft4-27" edge="1">
          <mxGeometry width="50" height="50" relative="1" as="geometry">
            <mxPoint x="985" y="472" as="sourcePoint" />
            <mxPoint x="985" y="452" as="targetPoint" />
            <Array as="points">
              <mxPoint x="985" y="462" />
            </Array>
          </mxGeometry>
        </mxCell>
        <mxCell id="4EoIY29dNoBSYB-6nft4-27" value="Nome" style="text;html=1;align=center;verticalAlign=middle;resizable=0;points=[];autosize=1;strokeColor=none;fillColor=none;labelBackgroundColor=none;" parent="1" vertex="1">
          <mxGeometry x="955" y="420" width="60" height="30" as="geometry" />
        </mxCell>
        <mxCell id="4EoIY29dNoBSYB-6nft4-28" value="" style="endArrow=oval;html=1;rounded=0;exitX=0.5;exitY=0;exitDx=0;exitDy=0;endFill=0;labelBackgroundColor=none;fontColor=default;" parent="1" edge="1">
          <mxGeometry width="50" height="50" relative="1" as="geometry">
            <mxPoint x="1035" y="472" as="sourcePoint" />
            <mxPoint x="1035" y="452" as="targetPoint" />
            <Array as="points">
              <mxPoint x="1035" y="462" />
            </Array>
          </mxGeometry>
        </mxCell>
        <mxCell id="4EoIY29dNoBSYB-6nft4-29" value="Cognome" style="text;html=1;align=center;verticalAlign=middle;resizable=0;points=[];autosize=1;strokeColor=none;fillColor=none;labelBackgroundColor=none;" parent="1" vertex="1">
          <mxGeometry x="995" y="422" width="80" height="30" as="geometry" />
        </mxCell>
        <mxCell id="4EoIY29dNoBSYB-6nft4-31" value="" style="endArrow=oval;html=1;rounded=0;endFill=1;" parent="1" edge="1">
          <mxGeometry width="50" height="50" relative="1" as="geometry">
            <mxPoint x="945" y="447" as="sourcePoint" />
            <mxPoint x="945" y="447" as="targetPoint" />
            <Array as="points">
              <mxPoint x="945" y="472" />
            </Array>
          </mxGeometry>
        </mxCell>
        <mxCell id="4EoIY29dNoBSYB-6nft4-36" value="" style="endArrow=oval;html=1;rounded=0;endFill=0;labelBackgroundColor=none;fontColor=default;exitX=1;exitY=0.5;exitDx=0;exitDy=0;entryX=0;entryY=0.664;entryDx=0;entryDy=0;entryPerimeter=0;" parent="1" source="4EoIY29dNoBSYB-6nft4-25" target="4EoIY29dNoBSYB-6nft4-37" edge="1">
          <mxGeometry width="50" height="50" relative="1" as="geometry">
            <mxPoint x="1035" y="482" as="sourcePoint" />
            <mxPoint x="1055" y="482" as="targetPoint" />
            <Array as="points">
              <mxPoint x="1045" y="492" />
              <mxPoint x="1055" y="492" />
            </Array>
          </mxGeometry>
        </mxCell>
        <mxCell id="4EoIY29dNoBSYB-6nft4-37" value="DDN" style="text;html=1;align=center;verticalAlign=middle;resizable=0;points=[];autosize=1;strokeColor=none;fillColor=none;rotation=0;" parent="1" vertex="1">
          <mxGeometry x="1055" y="472" width="50" height="30" as="geometry" />
        </mxCell>
        <mxCell id="4EoIY29dNoBSYB-6nft4-39" value="" style="endArrow=oval;html=1;rounded=0;endFill=0;labelBackgroundColor=none;fontColor=default;" parent="1" target="4EoIY29dNoBSYB-6nft4-40" edge="1">
          <mxGeometry width="50" height="50" relative="1" as="geometry">
            <mxPoint x="1025" y="512" as="sourcePoint" />
            <mxPoint x="1080" y="512" as="targetPoint" />
            <Array as="points" />
          </mxGeometry>
        </mxCell>
        <mxCell id="4EoIY29dNoBSYB-6nft4-40" value="NazionalitÃ " style="text;html=1;align=center;verticalAlign=middle;resizable=0;points=[];autosize=1;strokeColor=none;fillColor=none;rotation=0;" parent="1" vertex="1">
          <mxGeometry x="1065" y="505" width="80" height="30" as="geometry" />
        </mxCell>
        <mxCell id="4EoIY29dNoBSYB-6nft4-48" value="Data_prima_&lt;br&gt;licenza" style="text;html=1;align=center;verticalAlign=middle;resizable=0;points=[];autosize=1;strokeColor=none;fillColor=none;" parent="1" vertex="1">
          <mxGeometry x="810" y="460" width="90" height="40" as="geometry" />
        </mxCell>
        <mxCell id="4EoIY29dNoBSYB-6nft4-49" value="#Licenze" style="text;html=1;align=center;verticalAlign=middle;resizable=0;points=[];autosize=1;strokeColor=none;fillColor=none;" parent="1" vertex="1">
          <mxGeometry x="950" y="526" width="70" height="30" as="geometry" />
        </mxCell>
        <mxCell id="4EoIY29dNoBSYB-6nft4-59" value="Scuderia" style="html=1;align=center;fontStyle=0;labelBackgroundColor=none;fontColor=default;whiteSpace=wrap;labelBorderColor=none;verticalAlign=middle;horizontal=1;fontFamily=Helvetica;" parent="1" vertex="1">
          <mxGeometry x="570" y="520" width="100" height="40" as="geometry" />
        </mxCell>
        <mxCell id="4EoIY29dNoBSYB-6nft4-61" value="" style="endArrow=oval;html=1;rounded=0;exitX=0;exitY=0.5;exitDx=0;exitDy=0;endFill=1;labelBackgroundColor=none;fontColor=default;" parent="1" source="4EoIY29dNoBSYB-6nft4-59" edge="1">
          <mxGeometry width="50" height="50" relative="1" as="geometry">
            <mxPoint x="540" y="540" as="sourcePoint" />
            <mxPoint x="550" y="540" as="targetPoint" />
            <Array as="points" />
          </mxGeometry>
        </mxCell>
        <mxCell id="4EoIY29dNoBSYB-6nft4-62" value="Nome" style="text;html=1;align=center;verticalAlign=middle;resizable=0;points=[];autosize=1;strokeColor=none;fillColor=none;labelBackgroundColor=none;" parent="1" vertex="1">
          <mxGeometry x="495" y="525" width="60" height="30" as="geometry" />
        </mxCell>
        <mxCell id="4EoIY29dNoBSYB-6nft4-63" value="" style="endArrow=oval;html=1;rounded=0;endFill=0;labelBackgroundColor=none;fontColor=default;exitX=0.5;exitY=1;exitDx=0;exitDy=0;" parent="1" edge="1">
          <mxGeometry width="50" height="50" relative="1" as="geometry">
            <mxPoint x="615" y="561.5" as="sourcePoint" />
            <mxPoint x="615" y="581.5" as="targetPoint" />
            <Array as="points">
              <mxPoint x="615" y="571.5" />
              <mxPoint x="615" y="581.5" />
            </Array>
          </mxGeometry>
        </mxCell>
        <mxCell id="4EoIY29dNoBSYB-6nft4-64" value="Paese" style="text;html=1;align=center;verticalAlign=middle;resizable=0;points=[];autosize=1;strokeColor=none;fillColor=none;rotation=0;" parent="1" vertex="1">
          <mxGeometry x="585" y="581.5" width="60" height="30" as="geometry" />
        </mxCell>
        <mxCell id="4EoIY29dNoBSYB-6nft4-67" value="Vettura" style="html=1;align=center;fontStyle=0;labelBackgroundColor=none;fontColor=default;whiteSpace=wrap;labelBorderColor=none;verticalAlign=middle;horizontal=1;fontFamily=Helvetica;" parent="1" vertex="1">
          <mxGeometry x="570" y="323" width="100" height="40" as="geometry" />
        </mxCell>
        <mxCell id="4EoIY29dNoBSYB-6nft4-70" value="" style="endArrow=oval;html=1;rounded=0;endFill=1;labelBackgroundColor=none;fontColor=default;" parent="1" edge="1">
          <mxGeometry width="50" height="50" relative="1" as="geometry">
            <mxPoint x="660.1600000000001" y="363" as="sourcePoint" />
            <mxPoint x="659.83" y="383" as="targetPoint" />
            <Array as="points" />
          </mxGeometry>
        </mxCell>
        <mxCell id="4EoIY29dNoBSYB-6nft4-71" value="#Gara" style="text;html=1;align=center;verticalAlign=middle;resizable=0;points=[];autosize=1;strokeColor=none;fillColor=none;labelBackgroundColor=none;" parent="1" vertex="1">
          <mxGeometry x="630" y="378" width="60" height="30" as="geometry" />
        </mxCell>
        <mxCell id="4EoIY29dNoBSYB-6nft4-74" value="Modello" style="text;html=1;align=center;verticalAlign=middle;resizable=0;points=[];autosize=1;strokeColor=none;fillColor=none;" parent="1" vertex="1">
          <mxGeometry x="545" y="378" width="70" height="30" as="geometry" />
        </mxCell>
        <mxCell id="24WfkbDJMfI8mmHEkIdc-41" style="edgeStyle=orthogonalEdgeStyle;rounded=0;orthogonalLoop=1;jettySize=auto;html=1;exitX=1;exitY=0.5;exitDx=0;exitDy=0;endArrow=none;endFill=0;entryX=0.5;entryY=0.917;entryDx=0;entryDy=0;entryPerimeter=0;" parent="1" source="4EoIY29dNoBSYB-6nft4-75" target="24WfkbDJMfI8mmHEkIdc-40" edge="1">
          <mxGeometry relative="1" as="geometry">
            <mxPoint x="405" y="470.0000000000001" as="targetPoint" />
          </mxGeometry>
        </mxCell>
        <mxCell id="4EoIY29dNoBSYB-6nft4-75" value="Componente" style="html=1;align=center;fontStyle=0;labelBackgroundColor=none;fontColor=default;whiteSpace=wrap;labelBorderColor=none;verticalAlign=middle;horizontal=1;fontFamily=Helvetica;" parent="1" vertex="1">
          <mxGeometry x="174.25" y="480" width="100" height="40" as="geometry" />
        </mxCell>
        <mxCell id="4EoIY29dNoBSYB-6nft4-76" value="" style="endArrow=oval;html=1;rounded=0;exitX=0.5;exitY=0;exitDx=0;exitDy=0;endFill=1;labelBackgroundColor=none;fontColor=default;" parent="1" edge="1">
          <mxGeometry width="50" height="50" relative="1" as="geometry">
            <mxPoint x="256.2500000000001" y="480" as="sourcePoint" />
            <mxPoint x="256.25" y="460" as="targetPoint" />
            <Array as="points">
              <mxPoint x="256.25" y="470" />
            </Array>
          </mxGeometry>
        </mxCell>
        <mxCell id="4EoIY29dNoBSYB-6nft4-77" value="Codice" style="text;html=1;align=center;verticalAlign=middle;resizable=0;points=[];autosize=1;strokeColor=none;fillColor=none;labelBackgroundColor=none;" parent="1" vertex="1">
          <mxGeometry x="226.25" y="435" width="60" height="30" as="geometry" />
        </mxCell>
        <mxCell id="4EoIY29dNoBSYB-6nft4-78" value="" style="endArrow=oval;html=1;rounded=0;exitX=0.5;exitY=0;exitDx=0;exitDy=0;endFill=0;labelBackgroundColor=none;fontColor=default;" parent="1" edge="1">
          <mxGeometry width="50" height="50" relative="1" as="geometry">
            <mxPoint x="196.2500000000001" y="480" as="sourcePoint" />
            <mxPoint x="196.25" y="460" as="targetPoint" />
            <Array as="points">
              <mxPoint x="196.25" y="470" />
            </Array>
          </mxGeometry>
        </mxCell>
        <mxCell id="4EoIY29dNoBSYB-6nft4-79" value="Costo" style="text;html=1;align=center;verticalAlign=middle;resizable=0;points=[];autosize=1;strokeColor=none;fillColor=none;" parent="1" vertex="1">
          <mxGeometry x="166.25" y="435" width="50" height="30" as="geometry" />
        </mxCell>
        <mxCell id="4EoIY29dNoBSYB-6nft4-80" value="Costruttore" style="html=1;align=center;fontStyle=0;labelBackgroundColor=none;fontColor=default;whiteSpace=wrap;labelBorderColor=none;verticalAlign=middle;horizontal=1;fontFamily=Helvetica;" parent="1" vertex="1">
          <mxGeometry x="163.75" y="275" width="100" height="40" as="geometry" />
        </mxCell>
        <mxCell id="4EoIY29dNoBSYB-6nft4-81" value="" style="endArrow=oval;html=1;rounded=0;exitX=0.5;exitY=0;exitDx=0;exitDy=0;endFill=0;labelBackgroundColor=none;fontColor=default;" parent="1" edge="1">
          <mxGeometry width="50" height="50" relative="1" as="geometry">
            <mxPoint x="192.5000000000001" y="275" as="sourcePoint" />
            <mxPoint x="192.5" y="235" as="targetPoint" />
            <Array as="points">
              <mxPoint x="192.5" y="265" />
            </Array>
          </mxGeometry>
        </mxCell>
        <mxCell id="4EoIY29dNoBSYB-6nft4-82" value="Nome" style="text;html=1;align=center;verticalAlign=middle;resizable=0;points=[];autosize=1;strokeColor=none;fillColor=none;labelBackgroundColor=none;" parent="1" vertex="1">
          <mxGeometry x="152.5" y="205" width="60" height="30" as="geometry" />
        </mxCell>
        <mxCell id="4EoIY29dNoBSYB-6nft4-83" value="" style="endArrow=oval;html=1;rounded=0;exitX=0.5;exitY=0;exitDx=0;exitDy=0;endFill=1;labelBackgroundColor=none;fontColor=default;" parent="1" edge="1">
          <mxGeometry width="50" height="50" relative="1" as="geometry">
            <mxPoint x="164.5000000000001" y="275" as="sourcePoint" />
            <mxPoint x="164.5" y="255" as="targetPoint" />
            <Array as="points">
              <mxPoint x="164.5" y="265" />
            </Array>
          </mxGeometry>
        </mxCell>
        <mxCell id="4EoIY29dNoBSYB-6nft4-84" value="Ragione_sociale" style="text;html=1;align=center;verticalAlign=middle;resizable=0;points=[];autosize=1;strokeColor=none;fillColor=none;" parent="1" vertex="1">
          <mxGeometry x="87.5" y="225" width="110" height="30" as="geometry" />
        </mxCell>
        <mxCell id="4EoIY29dNoBSYB-6nft4-85" value="" style="endArrow=oval;html=1;rounded=0;exitX=0.5;exitY=0;exitDx=0;exitDy=0;endFill=0;labelBackgroundColor=none;fontColor=default;" parent="1" edge="1">
          <mxGeometry width="50" height="50" relative="1" as="geometry">
            <mxPoint x="222.5000000000001" y="275" as="sourcePoint" />
            <mxPoint x="222.5" y="245" as="targetPoint" />
            <Array as="points">
              <mxPoint x="222.5" y="265" />
            </Array>
          </mxGeometry>
        </mxCell>
        <mxCell id="4EoIY29dNoBSYB-6nft4-87" value="Sede&amp;nbsp;" style="text;html=1;align=center;verticalAlign=middle;resizable=0;points=[];autosize=1;strokeColor=none;fillColor=none;labelBackgroundColor=none;" parent="1" vertex="1">
          <mxGeometry x="202.5" y="215" width="50" height="30" as="geometry" />
        </mxCell>
        <mxCell id="4EoIY29dNoBSYB-6nft4-89" value="" style="endArrow=oval;html=1;rounded=0;exitX=0.5;exitY=0;exitDx=0;exitDy=0;endFill=0;labelBackgroundColor=none;fontColor=default;dashed=1;" parent="1" edge="1">
          <mxGeometry width="50" height="50" relative="1" as="geometry">
            <mxPoint x="257.5000000000001" y="275" as="sourcePoint" />
            <mxPoint x="257.5" y="245" as="targetPoint" />
            <Array as="points">
              <mxPoint x="257.5" y="265" />
            </Array>
          </mxGeometry>
        </mxCell>
        <mxCell id="4EoIY29dNoBSYB-6nft4-90" value="#Componenti_&lt;span style=&quot;background-color: initial; text-align: left;&quot;&gt;forniti&lt;/span&gt;" style="text;html=1;align=center;verticalAlign=middle;resizable=0;points=[];autosize=1;strokeColor=none;fillColor=none;labelBackgroundColor=none;" parent="1" vertex="1">
          <mxGeometry x="235" y="215" width="130" height="30" as="geometry" />
        </mxCell>
        <mxCell id="4EoIY29dNoBSYB-6nft4-108" value="" style="endArrow=oval;html=1;rounded=0;endFill=0;labelBackgroundColor=none;fontColor=default;exitX=0.5;exitY=1;exitDx=0;exitDy=0;" parent="1" edge="1">
          <mxGeometry width="50" height="50" relative="1" as="geometry">
            <mxPoint x="220" y="518.5" as="sourcePoint" />
            <mxPoint x="220" y="538.5" as="targetPoint" />
            <Array as="points">
              <mxPoint x="220" y="528.5" />
              <mxPoint x="220" y="538.5" />
            </Array>
          </mxGeometry>
        </mxCell>
        <mxCell id="4EoIY29dNoBSYB-6nft4-110" value="Materiale_Telaio" style="text;html=1;align=center;verticalAlign=middle;resizable=0;points=[];autosize=1;strokeColor=none;fillColor=none;" parent="1" vertex="1">
          <mxGeometry x="92.5" y="531.5" width="110" height="30" as="geometry" />
        </mxCell>
        <mxCell id="4EoIY29dNoBSYB-6nft4-113" value="Peso_Telaio" style="text;html=1;align=center;verticalAlign=middle;resizable=0;points=[];autosize=1;strokeColor=none;fillColor=none;" parent="1" vertex="1">
          <mxGeometry x="182.5" y="531.5" width="90" height="30" as="geometry" />
        </mxCell>
        <mxCell id="4EoIY29dNoBSYB-6nft4-115" value="Cilindrata_Motore" style="text;html=1;align=center;verticalAlign=middle;resizable=0;points=[];autosize=1;strokeColor=none;fillColor=none;" parent="1" vertex="1">
          <mxGeometry x="54.25" y="460" width="120" height="30" as="geometry" />
        </mxCell>
        <mxCell id="4EoIY29dNoBSYB-6nft4-119" value="Tipo_Motore" style="text;html=1;align=center;verticalAlign=middle;resizable=0;points=[];autosize=1;strokeColor=none;fillColor=none;fontSize=10;" parent="1" vertex="1">
          <mxGeometry x="83.75" y="495" width="80" height="30" as="geometry" />
        </mxCell>
        <mxCell id="4EoIY29dNoBSYB-6nft4-123" value="#Cilindri_Motore" style="text;html=1;align=center;verticalAlign=middle;resizable=0;points=[];autosize=1;strokeColor=none;fillColor=none;" parent="1" vertex="1">
          <mxGeometry x="45" y="480" width="110" height="30" as="geometry" />
        </mxCell>
        <mxCell id="4EoIY29dNoBSYB-6nft4-128" value="#Marce_Cambio" style="text;html=1;align=center;verticalAlign=middle;resizable=0;points=[];autosize=1;strokeColor=none;fillColor=none;" parent="1" vertex="1">
          <mxGeometry x="263.75" y="525" width="110" height="30" as="geometry" />
        </mxCell>
        <mxCell id="4EoIY29dNoBSYB-6nft4-129" value="Gara" style="html=1;align=center;fontStyle=0;labelBackgroundColor=none;fontColor=default;whiteSpace=wrap;labelBorderColor=none;verticalAlign=middle;horizontal=1;fontFamily=Helvetica;" parent="1" vertex="1">
          <mxGeometry x="565" y="160" width="100" height="40" as="geometry" />
        </mxCell>
        <mxCell id="4EoIY29dNoBSYB-6nft4-130" value="" style="endArrow=oval;html=1;rounded=0;exitX=0.5;exitY=0;exitDx=0;exitDy=0;endFill=1;labelBackgroundColor=none;fontColor=default;" parent="1" edge="1">
          <mxGeometry width="50" height="50" relative="1" as="geometry">
            <mxPoint x="635.0000000000001" y="160" as="sourcePoint" />
            <mxPoint x="635" y="140" as="targetPoint" />
            <Array as="points">
              <mxPoint x="635" y="150" />
            </Array>
          </mxGeometry>
        </mxCell>
        <mxCell id="4EoIY29dNoBSYB-6nft4-131" value="Nome" style="text;html=1;align=center;verticalAlign=middle;resizable=0;points=[];autosize=1;strokeColor=none;fillColor=none;labelBackgroundColor=none;" parent="1" vertex="1">
          <mxGeometry x="605" y="110" width="60" height="30" as="geometry" />
        </mxCell>
        <mxCell id="4EoIY29dNoBSYB-6nft4-132" value="" style="endArrow=oval;html=1;rounded=0;exitX=0.5;exitY=0;exitDx=0;exitDy=0;endFill=0;labelBackgroundColor=none;fontColor=default;" parent="1" edge="1">
          <mxGeometry width="50" height="50" relative="1" as="geometry">
            <mxPoint x="585.0000000000001" y="160" as="sourcePoint" />
            <mxPoint x="585" y="140" as="targetPoint" />
            <Array as="points">
              <mxPoint x="585" y="150" />
            </Array>
          </mxGeometry>
        </mxCell>
        <mxCell id="4EoIY29dNoBSYB-6nft4-133" value="Data" style="text;html=1;align=center;verticalAlign=middle;resizable=0;points=[];autosize=1;strokeColor=none;fillColor=none;" parent="1" vertex="1">
          <mxGeometry x="555" y="110" width="50" height="30" as="geometry" />
        </mxCell>
        <mxCell id="4EoIY29dNoBSYB-6nft4-135" value="" style="endArrow=oval;html=1;rounded=0;exitX=1;exitY=0.5;exitDx=0;exitDy=0;endFill=0;labelBackgroundColor=none;fontColor=default;" parent="1" edge="1">
          <mxGeometry width="50" height="50" relative="1" as="geometry">
            <mxPoint x="665" y="165" as="sourcePoint" />
            <mxPoint x="695" y="165" as="targetPoint" />
            <Array as="points" />
          </mxGeometry>
        </mxCell>
        <mxCell id="4EoIY29dNoBSYB-6nft4-136" value="Tipo" style="text;html=1;align=center;verticalAlign=middle;resizable=0;points=[];autosize=1;strokeColor=none;fillColor=none;labelBackgroundColor=none;" parent="1" vertex="1">
          <mxGeometry x="690" y="150" width="50" height="30" as="geometry" />
        </mxCell>
        <mxCell id="4EoIY29dNoBSYB-6nft4-138" value="DurataH" style="text;html=1;align=center;verticalAlign=middle;resizable=0;points=[];autosize=1;strokeColor=none;fillColor=none;labelBackgroundColor=none;" parent="1" vertex="1">
          <mxGeometry x="690" y="170" width="70" height="30" as="geometry" />
        </mxCell>
        <mxCell id="24WfkbDJMfI8mmHEkIdc-9" style="edgeStyle=orthogonalEdgeStyle;rounded=0;orthogonalLoop=1;jettySize=auto;html=1;exitX=1;exitY=0.5;exitDx=0;exitDy=0;entryX=0;entryY=0.5;entryDx=0;entryDy=0;endArrow=none;endFill=0;" parent="1" source="4EoIY29dNoBSYB-6nft4-147" target="4EoIY29dNoBSYB-6nft4-157" edge="1">
          <mxGeometry relative="1" as="geometry" />
        </mxCell>
        <mxCell id="4EoIY29dNoBSYB-6nft4-147" value="Circuito" style="html=1;align=center;fontStyle=0;labelBackgroundColor=none;fontColor=default;whiteSpace=wrap;labelBorderColor=none;verticalAlign=middle;horizontal=1;fontFamily=Helvetica;" parent="1" vertex="1">
          <mxGeometry x="155" y="160" width="100" height="40" as="geometry" />
        </mxCell>
        <mxCell id="4EoIY29dNoBSYB-6nft4-148" value="" style="endArrow=oval;html=1;rounded=0;exitX=0.5;exitY=0;exitDx=0;exitDy=0;endFill=1;labelBackgroundColor=none;fontColor=default;" parent="1" edge="1">
          <mxGeometry width="50" height="50" relative="1" as="geometry">
            <mxPoint x="225.0000000000001" y="160" as="sourcePoint" />
            <mxPoint x="225" y="140" as="targetPoint" />
            <Array as="points">
              <mxPoint x="225" y="150" />
            </Array>
          </mxGeometry>
        </mxCell>
        <mxCell id="4EoIY29dNoBSYB-6nft4-149" value="" style="endArrow=oval;html=1;rounded=0;exitX=0.5;exitY=0;exitDx=0;exitDy=0;endFill=0;labelBackgroundColor=none;fontColor=default;" parent="1" edge="1">
          <mxGeometry width="50" height="50" relative="1" as="geometry">
            <mxPoint x="175.0000000000001" y="160" as="sourcePoint" />
            <mxPoint x="175" y="140" as="targetPoint" />
            <Array as="points">
              <mxPoint x="175" y="150" />
            </Array>
          </mxGeometry>
        </mxCell>
        <mxCell id="4EoIY29dNoBSYB-6nft4-151" value="Lunghezza" style="text;html=1;align=center;verticalAlign=middle;resizable=0;points=[];autosize=1;strokeColor=none;fillColor=none;labelBackgroundColor=none;" parent="1" vertex="1">
          <mxGeometry x="60" y="170" width="80" height="30" as="geometry" />
        </mxCell>
        <mxCell id="4EoIY29dNoBSYB-6nft4-152" value="#Curve" style="text;html=1;align=center;verticalAlign=middle;resizable=0;points=[];autosize=1;strokeColor=none;fillColor=none;labelBackgroundColor=none;" parent="1" vertex="1">
          <mxGeometry x="70" y="150" width="60" height="30" as="geometry" />
        </mxCell>
        <mxCell id="4EoIY29dNoBSYB-6nft4-153" value="" style="endArrow=oval;html=1;rounded=0;exitX=0;exitY=0.5;exitDx=0;exitDy=0;endFill=0;labelBackgroundColor=none;fontColor=default;entryX=1;entryY=0.5;entryDx=0;entryDy=0;entryPerimeter=0;" parent="1" target="4EoIY29dNoBSYB-6nft4-152" edge="1">
          <mxGeometry width="50" height="50" relative="1" as="geometry">
            <mxPoint x="155" y="165" as="sourcePoint" />
            <mxPoint x="145" y="184.73" as="targetPoint" />
            <Array as="points">
              <mxPoint x="145" y="165" />
            </Array>
          </mxGeometry>
        </mxCell>
        <mxCell id="4EoIY29dNoBSYB-6nft4-154" value="Nome" style="text;html=1;align=center;verticalAlign=middle;resizable=0;points=[];autosize=1;strokeColor=none;fillColor=none;" parent="1" vertex="1">
          <mxGeometry x="195" y="115" width="60" height="30" as="geometry" />
        </mxCell>
        <mxCell id="4EoIY29dNoBSYB-6nft4-155" value="Paese" style="text;html=1;align=center;verticalAlign=middle;resizable=0;points=[];autosize=1;strokeColor=none;fillColor=none;" parent="1" vertex="1">
          <mxGeometry x="145" y="110" width="60" height="30" as="geometry" />
        </mxCell>
        <mxCell id="24WfkbDJMfI8mmHEkIdc-6" style="edgeStyle=orthogonalEdgeStyle;rounded=0;orthogonalLoop=1;jettySize=auto;html=1;exitX=1;exitY=0.5;exitDx=0;exitDy=0;entryX=0;entryY=0.5;entryDx=0;entryDy=0;endArrow=none;endFill=0;" parent="1" source="4EoIY29dNoBSYB-6nft4-157" target="4EoIY29dNoBSYB-6nft4-129" edge="1">
          <mxGeometry relative="1" as="geometry" />
        </mxCell>
        <mxCell id="4EoIY29dNoBSYB-6nft4-157" value="Si svolge" style="shape=rhombus;perimeter=rhombusPerimeter;whiteSpace=wrap;html=1;align=center;" parent="1" vertex="1">
          <mxGeometry x="345" y="150" width="120" height="60" as="geometry" />
        </mxCell>
        <mxCell id="24WfkbDJMfI8mmHEkIdc-4" value="" style="endArrow=oval;html=1;rounded=0;endFill=0;" parent="1" edge="1">
          <mxGeometry width="50" height="50" relative="1" as="geometry">
            <mxPoint x="665" y="184.8" as="sourcePoint" />
            <mxPoint x="695" y="185" as="targetPoint" />
          </mxGeometry>
        </mxCell>
        <mxCell id="24WfkbDJMfI8mmHEkIdc-8" value="" style="endArrow=oval;html=1;rounded=0;exitX=0;exitY=0.5;exitDx=0;exitDy=0;endFill=0;labelBackgroundColor=none;fontColor=default;entryX=1;entryY=0.5;entryDx=0;entryDy=0;entryPerimeter=0;" parent="1" edge="1">
          <mxGeometry width="50" height="50" relative="1" as="geometry">
            <mxPoint x="155" y="184.86" as="sourcePoint" />
            <mxPoint x="135" y="184.86" as="targetPoint" />
            <Array as="points">
              <mxPoint x="145" y="184.86" />
            </Array>
          </mxGeometry>
        </mxCell>
        <mxCell id="24WfkbDJMfI8mmHEkIdc-10" value="" style="endArrow=oval;html=1;rounded=0;endFill=0;labelBackgroundColor=none;fontColor=default;" parent="1" edge="1">
          <mxGeometry width="50" height="50" relative="1" as="geometry">
            <mxPoint x="579.8299999999999" y="363" as="sourcePoint" />
            <mxPoint x="580" y="383" as="targetPoint" />
            <Array as="points">
              <mxPoint x="579.8299999999999" y="372.66999999999996" />
            </Array>
          </mxGeometry>
        </mxCell>
        <mxCell id="24WfkbDJMfI8mmHEkIdc-14" style="edgeStyle=orthogonalEdgeStyle;rounded=0;orthogonalLoop=1;jettySize=auto;html=1;exitX=0.5;exitY=1;exitDx=0;exitDy=0;entryX=0.5;entryY=0;entryDx=0;entryDy=0;endArrow=none;endFill=0;" parent="1" source="24WfkbDJMfI8mmHEkIdc-12" target="4EoIY29dNoBSYB-6nft4-67" edge="1">
          <mxGeometry relative="1" as="geometry" />
        </mxCell>
        <mxCell id="24WfkbDJMfI8mmHEkIdc-12" value="Partecipa" style="shape=rhombus;perimeter=rhombusPerimeter;whiteSpace=wrap;html=1;align=center;" parent="1" vertex="1">
          <mxGeometry x="560" y="230" width="120" height="60" as="geometry" />
        </mxCell>
        <mxCell id="24WfkbDJMfI8mmHEkIdc-13" style="edgeStyle=orthogonalEdgeStyle;rounded=0;orthogonalLoop=1;jettySize=auto;html=1;exitX=0.5;exitY=0;exitDx=0;exitDy=0;entryX=0.5;entryY=1;entryDx=0;entryDy=0;endArrow=none;endFill=0;" parent="1" edge="1">
          <mxGeometry relative="1" as="geometry">
            <mxPoint x="624" y="231" as="sourcePoint" />
            <mxPoint x="619" y="201" as="targetPoint" />
          </mxGeometry>
        </mxCell>
        <mxCell id="24WfkbDJMfI8mmHEkIdc-16" value="" style="endArrow=oval;html=1;rounded=0;exitX=0.125;exitY=0.367;exitDx=0;exitDy=0;exitPerimeter=0;endFill=0;" parent="1" source="24WfkbDJMfI8mmHEkIdc-12" edge="1">
          <mxGeometry width="50" height="50" relative="1" as="geometry">
            <mxPoint x="385" y="300" as="sourcePoint" />
            <mxPoint x="555" y="240" as="targetPoint" />
          </mxGeometry>
        </mxCell>
        <mxCell id="24WfkbDJMfI8mmHEkIdc-18" value="Punti" style="text;html=1;align=center;verticalAlign=middle;resizable=0;points=[];autosize=1;strokeColor=none;fillColor=none;labelBackgroundColor=none;" parent="1" vertex="1">
          <mxGeometry x="510" y="220" width="50" height="30" as="geometry" />
        </mxCell>
        <mxCell id="24WfkbDJMfI8mmHEkIdc-19" value="" style="endArrow=oval;html=1;rounded=0;exitX=0.806;exitY=0.319;exitDx=0;exitDy=0;exitPerimeter=0;endFill=0;" parent="1" source="24WfkbDJMfI8mmHEkIdc-12" edge="1">
          <mxGeometry width="50" height="50" relative="1" as="geometry">
            <mxPoint x="720" y="250" as="sourcePoint" />
            <mxPoint x="685" y="240" as="targetPoint" />
          </mxGeometry>
        </mxCell>
        <mxCell id="24WfkbDJMfI8mmHEkIdc-20" value="Motivo_Ritiro" style="text;html=1;align=center;verticalAlign=middle;resizable=0;points=[];autosize=1;strokeColor=none;fillColor=none;labelBackgroundColor=none;" parent="1" vertex="1">
          <mxGeometry x="659" y="215" width="90" height="30" as="geometry" />
        </mxCell>
        <mxCell id="24WfkbDJMfI8mmHEkIdc-21" value="Guida" style="shape=rhombus;perimeter=rhombusPerimeter;whiteSpace=wrap;html=1;align=center;" parent="1" vertex="1">
          <mxGeometry x="705" y="308" width="120" height="60" as="geometry" />
        </mxCell>
        <mxCell id="24WfkbDJMfI8mmHEkIdc-22" style="edgeStyle=orthogonalEdgeStyle;rounded=0;orthogonalLoop=1;jettySize=auto;html=1;exitX=1;exitY=0.5;exitDx=0;exitDy=0;endArrow=none;endFill=0;entryX=0;entryY=0.5;entryDx=0;entryDy=0;" parent="1" target="24WfkbDJMfI8mmHEkIdc-21" edge="1">
          <mxGeometry relative="1" as="geometry">
            <mxPoint x="670" y="340.17" as="sourcePoint" />
            <mxPoint x="705" y="340" as="targetPoint" />
            <Array as="points">
              <mxPoint x="705" y="340" />
            </Array>
          </mxGeometry>
        </mxCell>
        <mxCell id="24WfkbDJMfI8mmHEkIdc-35" style="edgeStyle=orthogonalEdgeStyle;rounded=0;orthogonalLoop=1;jettySize=auto;html=1;exitX=0.5;exitY=1;exitDx=0;exitDy=0;entryX=0.5;entryY=0;entryDx=0;entryDy=0;endArrow=none;endFill=0;" parent="1" source="24WfkbDJMfI8mmHEkIdc-28" target="4EoIY29dNoBSYB-6nft4-59" edge="1">
          <mxGeometry relative="1" as="geometry" />
        </mxCell>
        <mxCell id="24WfkbDJMfI8mmHEkIdc-36" style="edgeStyle=orthogonalEdgeStyle;rounded=0;orthogonalLoop=1;jettySize=auto;html=1;exitX=0.5;exitY=0;exitDx=0;exitDy=0;entryX=0.5;entryY=1;entryDx=0;entryDy=0;endArrow=none;endFill=0;" parent="1" source="24WfkbDJMfI8mmHEkIdc-28" target="4EoIY29dNoBSYB-6nft4-67" edge="1">
          <mxGeometry relative="1" as="geometry" />
        </mxCell>
        <mxCell id="24WfkbDJMfI8mmHEkIdc-28" value="Gestisce" style="shape=rhombus;perimeter=rhombusPerimeter;whiteSpace=wrap;html=1;align=center;" parent="1" vertex="1">
          <mxGeometry x="560" y="425" width="120" height="60" as="geometry" />
        </mxCell>
        <mxCell id="24WfkbDJMfI8mmHEkIdc-31" value="" style="endArrow=oval;html=1;rounded=0;exitX=0.125;exitY=0.367;exitDx=0;exitDy=0;exitPerimeter=0;endFill=0;" parent="1" edge="1">
          <mxGeometry width="50" height="50" relative="1" as="geometry">
            <mxPoint x="570" y="451" as="sourcePoint" />
            <mxPoint x="550" y="439" as="targetPoint" />
          </mxGeometry>
        </mxCell>
        <mxCell id="24WfkbDJMfI8mmHEkIdc-32" value="Data_&lt;br&gt;Acquisto" style="text;html=1;align=center;verticalAlign=middle;resizable=0;points=[];autosize=1;strokeColor=none;fillColor=none;labelBackgroundColor=none;fontSize=9;" parent="1" vertex="1">
          <mxGeometry x="495" y="415" width="60" height="40" as="geometry" />
        </mxCell>
        <mxCell id="24WfkbDJMfI8mmHEkIdc-33" value="" style="endArrow=oval;html=1;rounded=0;exitX=0.125;exitY=0.367;exitDx=0;exitDy=0;exitPerimeter=0;endFill=0;" parent="1" edge="1">
          <mxGeometry width="50" height="50" relative="1" as="geometry">
            <mxPoint x="676" y="453" as="sourcePoint" />
            <mxPoint x="696" y="438" as="targetPoint" />
          </mxGeometry>
        </mxCell>
        <mxCell id="24WfkbDJMfI8mmHEkIdc-34" value="Prezzo" style="text;html=1;align=center;verticalAlign=middle;resizable=0;points=[];autosize=1;strokeColor=none;fillColor=none;labelBackgroundColor=none;" parent="1" vertex="1">
          <mxGeometry x="689" y="415" width="60" height="30" as="geometry" />
        </mxCell>
        <mxCell id="24WfkbDJMfI8mmHEkIdc-39" style="edgeStyle=orthogonalEdgeStyle;rounded=0;orthogonalLoop=1;jettySize=auto;html=1;exitX=0.5;exitY=1;exitDx=0;exitDy=0;entryX=0.5;entryY=0;entryDx=0;entryDy=0;endArrow=none;endFill=0;" parent="1" source="24WfkbDJMfI8mmHEkIdc-37" target="4EoIY29dNoBSYB-6nft4-75" edge="1">
          <mxGeometry relative="1" as="geometry" />
        </mxCell>
        <mxCell id="24WfkbDJMfI8mmHEkIdc-37" value="Costruisce" style="shape=rhombus;perimeter=rhombusPerimeter;whiteSpace=wrap;html=1;align=center;" parent="1" vertex="1">
          <mxGeometry x="163.75" y="370" width="120" height="60" as="geometry" />
        </mxCell>
        <mxCell id="24WfkbDJMfI8mmHEkIdc-38" style="edgeStyle=orthogonalEdgeStyle;rounded=0;orthogonalLoop=1;jettySize=auto;html=1;exitX=0.5;exitY=0;exitDx=0;exitDy=0;entryX=0.597;entryY=1;entryDx=0;entryDy=0;entryPerimeter=0;endArrow=none;endFill=0;" parent="1" source="24WfkbDJMfI8mmHEkIdc-37" target="4EoIY29dNoBSYB-6nft4-80" edge="1">
          <mxGeometry relative="1" as="geometry">
            <mxPoint x="222.5" y="325" as="sourcePoint" />
          </mxGeometry>
        </mxCell>
        <mxCell id="24WfkbDJMfI8mmHEkIdc-42" style="edgeStyle=orthogonalEdgeStyle;rounded=0;orthogonalLoop=1;jettySize=auto;html=1;exitX=0.5;exitY=0;exitDx=0;exitDy=0;entryX=0;entryY=0.5;entryDx=0;entryDy=0;endArrow=none;endFill=0;" parent="1" source="24WfkbDJMfI8mmHEkIdc-40" target="4EoIY29dNoBSYB-6nft4-67" edge="1">
          <mxGeometry relative="1" as="geometry" />
        </mxCell>
        <mxCell id="24WfkbDJMfI8mmHEkIdc-40" value="Montato" style="shape=rhombus;perimeter=rhombusPerimeter;whiteSpace=wrap;html=1;align=center;" parent="1" vertex="1">
          <mxGeometry x="345" y="405" width="120" height="60" as="geometry" />
        </mxCell>
        <mxCell id="24WfkbDJMfI8mmHEkIdc-43" value="" style="endArrow=oval;html=1;rounded=0;exitX=0.125;exitY=0.367;exitDx=0;exitDy=0;exitPerimeter=0;endFill=0;" parent="1" edge="1">
          <mxGeometry width="50" height="50" relative="1" as="geometry">
            <mxPoint x="380" y="420" as="sourcePoint" />
            <mxPoint x="360" y="408" as="targetPoint" />
          </mxGeometry>
        </mxCell>
        <mxCell id="24WfkbDJMfI8mmHEkIdc-44" value="Data" style="text;html=1;align=center;verticalAlign=middle;resizable=0;points=[];autosize=1;strokeColor=none;fillColor=none;labelBackgroundColor=none;" parent="1" vertex="1">
          <mxGeometry x="315" y="388" width="50" height="30" as="geometry" />
        </mxCell>
        <mxCell id="E5ixjJf9oxTP6WnFrqkC-4" style="edgeStyle=orthogonalEdgeStyle;rounded=0;orthogonalLoop=1;jettySize=auto;html=1;exitX=0;exitY=0.5;exitDx=0;exitDy=0;entryX=1;entryY=0.5;entryDx=0;entryDy=0;endArrow=none;endFill=0;" parent="1" source="E5ixjJf9oxTP6WnFrqkC-2" target="4EoIY29dNoBSYB-6nft4-59" edge="1">
          <mxGeometry relative="1" as="geometry" />
        </mxCell>
        <mxCell id="E5ixjJf9oxTP6WnFrqkC-2" value="Finanzia" style="shape=rhombus;perimeter=rhombusPerimeter;whiteSpace=wrap;html=1;align=center;" parent="1" vertex="1">
          <mxGeometry x="755" y="572" width="120" height="60" as="geometry" />
        </mxCell>
        <mxCell id="E5ixjJf9oxTP6WnFrqkC-5" value="" style="endArrow=oval;html=1;rounded=0;exitX=0.125;exitY=0.367;exitDx=0;exitDy=0;exitPerimeter=0;endFill=0;" parent="1" edge="1">
          <mxGeometry width="50" height="50" relative="1" as="geometry">
            <mxPoint x="835" y="582" as="sourcePoint" />
            <mxPoint x="855" y="567" as="targetPoint" />
          </mxGeometry>
        </mxCell>
        <mxCell id="E5ixjJf9oxTP6WnFrqkC-6" value="Data" style="text;html=1;align=center;verticalAlign=middle;resizable=0;points=[];autosize=1;strokeColor=none;fillColor=none;labelBackgroundColor=none;" parent="1" vertex="1">
          <mxGeometry x="850" y="547" width="50" height="30" as="geometry" />
        </mxCell>
        <mxCell id="DFJkzAto43T6tOax5DAH-1" value="(1,1)" style="text;html=1;align=center;verticalAlign=middle;resizable=0;points=[];autosize=1;strokeColor=none;fillColor=none;" parent="1" vertex="1">
          <mxGeometry x="510" y="150" width="50" height="30" as="geometry" />
        </mxCell>
        <mxCell id="DFJkzAto43T6tOax5DAH-2" value="N" style="text;html=1;align=center;verticalAlign=middle;resizable=0;points=[];autosize=1;strokeColor=none;fillColor=none;fontColor=#ff0000;" parent="1" vertex="1">
          <mxGeometry x="465" y="180" width="30" height="30" as="geometry" />
        </mxCell>
        <mxCell id="DFJkzAto43T6tOax5DAH-3" value="1" style="text;html=1;align=center;verticalAlign=middle;resizable=0;points=[];autosize=1;strokeColor=none;fillColor=none;fontColor=#ff0000;" parent="1" vertex="1">
          <mxGeometry x="315" y="180" width="30" height="30" as="geometry" />
        </mxCell>
        <mxCell id="DFJkzAto43T6tOax5DAH-4" value="(0,n)" style="text;html=1;align=center;verticalAlign=middle;resizable=0;points=[];autosize=1;strokeColor=none;fillColor=none;" parent="1" vertex="1">
          <mxGeometry x="271.25" y="150" width="50" height="30" as="geometry" />
        </mxCell>
        <mxCell id="DFJkzAto43T6tOax5DAH-5" value="(0,1)" style="text;html=1;align=center;verticalAlign=middle;resizable=0;points=[];autosize=1;strokeColor=none;fillColor=none;fontSize=7;" parent="1" vertex="1">
          <mxGeometry x="720" y="230" width="40" height="20" as="geometry" />
        </mxCell>
        <mxCell id="DFJkzAto43T6tOax5DAH-6" value="N" style="text;html=1;align=center;verticalAlign=middle;resizable=0;points=[];autosize=1;strokeColor=none;fillColor=none;fontColor=#ff0000;" parent="1" vertex="1">
          <mxGeometry x="615" y="210" width="30" height="30" as="geometry" />
        </mxCell>
        <mxCell id="DFJkzAto43T6tOax5DAH-7" value="M" style="text;html=1;align=center;verticalAlign=middle;resizable=0;points=[];autosize=1;strokeColor=none;fillColor=none;fontColor=#ff0000;" parent="1" vertex="1">
          <mxGeometry x="600" y="280" width="30" height="30" as="geometry" />
        </mxCell>
        <mxCell id="DFJkzAto43T6tOax5DAH-8" value="(0,n)" style="text;html=1;align=center;verticalAlign=middle;resizable=0;points=[];autosize=1;strokeColor=none;fillColor=none;" parent="1" vertex="1">
          <mxGeometry x="615" y="300" width="50" height="30" as="geometry" />
        </mxCell>
        <mxCell id="DFJkzAto43T6tOax5DAH-9" value="(1,n)" style="text;html=1;align=center;verticalAlign=middle;resizable=0;points=[];autosize=1;strokeColor=none;fillColor=none;" parent="1" vertex="1">
          <mxGeometry x="630" y="195" width="50" height="30" as="geometry" />
        </mxCell>
        <mxCell id="DFJkzAto43T6tOax5DAH-10" value="1" style="text;html=1;align=center;verticalAlign=middle;resizable=0;points=[];autosize=1;strokeColor=none;fillColor=none;fontColor=#ff0000;" parent="1" vertex="1">
          <mxGeometry x="615" y="473" width="30" height="30" as="geometry" />
        </mxCell>
        <mxCell id="DFJkzAto43T6tOax5DAH-11" value="N" style="text;html=1;align=center;verticalAlign=middle;resizable=0;points=[];autosize=1;strokeColor=none;fillColor=none;fontColor=#ff0000;" parent="1" vertex="1">
          <mxGeometry x="615" y="400" width="30" height="30" as="geometry" />
        </mxCell>
        <mxCell id="DFJkzAto43T6tOax5DAH-12" value="(1,n)" style="text;html=1;align=center;verticalAlign=middle;resizable=0;points=[];autosize=1;strokeColor=none;fillColor=none;" parent="1" vertex="1">
          <mxGeometry x="575" y="495" width="50" height="30" as="geometry" />
        </mxCell>
        <mxCell id="DFJkzAto43T6tOax5DAH-13" value="(1,1)" style="text;html=1;align=center;verticalAlign=middle;resizable=0;points=[];autosize=1;strokeColor=none;fillColor=none;" parent="1" vertex="1">
          <mxGeometry x="575" y="395" width="50" height="30" as="geometry" />
        </mxCell>
        <mxCell id="DFJkzAto43T6tOax5DAH-14" value="1" style="text;html=1;align=center;verticalAlign=middle;resizable=0;points=[];autosize=1;strokeColor=none;fillColor=none;fontColor=#ff0000;" parent="1" vertex="1">
          <mxGeometry x="710" y="300" width="30" height="30" as="geometry" />
        </mxCell>
        <mxCell id="DFJkzAto43T6tOax5DAH-15" value="N" style="text;html=1;align=center;verticalAlign=middle;resizable=0;points=[];autosize=1;strokeColor=none;fillColor=none;fontColor=#ff0000;" parent="1" vertex="1">
          <mxGeometry x="795" y="300" width="30" height="30" as="geometry" />
        </mxCell>
        <mxCell id="DFJkzAto43T6tOax5DAH-17" value="(1,1)" style="text;html=1;align=center;verticalAlign=middle;resizable=0;points=[];autosize=1;strokeColor=none;fillColor=none;" parent="1" vertex="1">
          <mxGeometry x="665" y="333" width="50" height="30" as="geometry" />
        </mxCell>
        <mxCell id="DFJkzAto43T6tOax5DAH-23" value="1" style="text;html=1;align=center;verticalAlign=middle;resizable=0;points=[];autosize=1;strokeColor=none;fillColor=none;fontColor=#ff0000;" parent="1" vertex="1">
          <mxGeometry x="740" y="602" width="30" height="30" as="geometry" />
        </mxCell>
        <mxCell id="DFJkzAto43T6tOax5DAH-24" value="N" style="text;html=1;align=center;verticalAlign=middle;resizable=0;points=[];autosize=1;strokeColor=none;fillColor=none;fontColor=#ff0000;" parent="1" vertex="1">
          <mxGeometry x="870" y="597" width="30" height="30" as="geometry" />
        </mxCell>
        <mxCell id="DFJkzAto43T6tOax5DAH-26" value="(0,n)" style="text;html=1;align=center;verticalAlign=middle;resizable=0;points=[];autosize=1;strokeColor=none;fillColor=none;" parent="1" vertex="1">
          <mxGeometry x="665" y="510" width="50" height="30" as="geometry" />
        </mxCell>
        <mxCell id="DFJkzAto43T6tOax5DAH-28" value="1" style="text;html=1;align=center;verticalAlign=middle;resizable=0;points=[];autosize=1;strokeColor=none;fillColor=none;fontColor=#ff0000;" parent="1" vertex="1">
          <mxGeometry x="218.75" y="348" width="30" height="30" as="geometry" />
        </mxCell>
        <mxCell id="DFJkzAto43T6tOax5DAH-30" value="N" style="text;html=1;align=center;verticalAlign=middle;resizable=0;points=[];autosize=1;strokeColor=none;fillColor=none;fontColor=#ff0000;" parent="1" vertex="1">
          <mxGeometry x="216.25" y="420" width="30" height="30" as="geometry" />
        </mxCell>
        <mxCell id="DFJkzAto43T6tOax5DAH-31" value="SSID" style="text;html=1;align=center;verticalAlign=middle;resizable=0;points=[];autosize=1;strokeColor=none;fillColor=none;" parent="1" vertex="1">
          <mxGeometry x="915" y="420" width="50" height="30" as="geometry" />
        </mxCell>
        <mxCell id="DFJkzAto43T6tOax5DAH-32" value="(0,n)" style="text;html=1;align=center;verticalAlign=middle;resizable=0;points=[];autosize=1;strokeColor=none;fillColor=none;" parent="1" vertex="1">
          <mxGeometry x="180" y="308" width="50" height="30" as="geometry" />
        </mxCell>
        <mxCell id="DFJkzAto43T6tOax5DAH-33" value="(1,1)" style="text;html=1;align=center;verticalAlign=middle;resizable=0;points=[];autosize=1;strokeColor=none;fillColor=none;" parent="1" vertex="1">
          <mxGeometry x="246.25" y="414" width="50" height="30" as="geometry" />
        </mxCell>
        <mxCell id="DFJkzAto43T6tOax5DAH-34" value="N" style="text;html=1;align=center;verticalAlign=middle;resizable=0;points=[];autosize=1;strokeColor=none;fillColor=none;fontColor=#ff0000;" parent="1" vertex="1">
          <mxGeometry x="385" y="460" width="30" height="30" as="geometry" />
        </mxCell>
        <mxCell id="DFJkzAto43T6tOax5DAH-35" value="1" style="text;html=1;align=center;verticalAlign=middle;resizable=0;points=[];autosize=1;strokeColor=none;fillColor=none;fontColor=#ff0000;" parent="1" vertex="1">
          <mxGeometry x="395" y="380" width="30" height="30" as="geometry" />
        </mxCell>
        <mxCell id="DFJkzAto43T6tOax5DAH-36" value="(1,n)" style="text;html=1;align=center;verticalAlign=middle;resizable=0;points=[];autosize=1;strokeColor=none;fillColor=none;" parent="1" vertex="1">
          <mxGeometry x="525" y="338" width="50" height="30" as="geometry" />
        </mxCell>
        <mxCell id="DFJkzAto43T6tOax5DAH-37" value="(0,1)" style="text;html=1;align=center;verticalAlign=middle;resizable=0;points=[];autosize=1;strokeColor=none;fillColor=none;" parent="1" vertex="1">
          <mxGeometry x="268.75" y="473" width="50" height="30" as="geometry" />
        </mxCell>
        <mxCell id="d1SDgLnMbTXoz2OvKtmw-1" value="" style="endArrow=oval;html=1;rounded=0;endFill=0;" parent="1" source="24WfkbDJMfI8mmHEkIdc-12" edge="1">
          <mxGeometry width="50" height="50" relative="1" as="geometry">
            <mxPoint x="565" y="287" as="sourcePoint" />
            <mxPoint x="545" y="275" as="targetPoint" />
          </mxGeometry>
        </mxCell>
        <mxCell id="d1SDgLnMbTXoz2OvKtmw-2" value="Posizione" style="text;html=1;align=center;verticalAlign=middle;resizable=0;points=[];autosize=1;strokeColor=none;fillColor=none;labelBackgroundColor=none;" parent="1" vertex="1">
          <mxGeometry x="475" y="260" width="80" height="30" as="geometry" />
        </mxCell>
        <mxCell id="KKj1VupSdJ4Ncg707NuI-1" value="Quota" style="text;html=1;align=center;verticalAlign=middle;resizable=0;points=[];autosize=1;strokeColor=none;fillColor=none;" parent="1" vertex="1">
          <mxGeometry x="1015" y="522" width="60" height="30" as="geometry" />
        </mxCell>
        <mxCell id="KKj1VupSdJ4Ncg707NuI-5" value="" style="endArrow=oval;html=1;rounded=0;endFill=0;entryX=0.149;entryY=0.063;entryDx=0;entryDy=0;entryPerimeter=0;" parent="1" target="KKj1VupSdJ4Ncg707NuI-1" edge="1">
          <mxGeometry width="50" height="50" relative="1" as="geometry">
            <mxPoint x="1010" y="512" as="sourcePoint" />
            <mxPoint x="1010" y="532" as="targetPoint" />
          </mxGeometry>
        </mxCell>
        <mxCell id="PdAzIgDWlpYNX6qkT6jr-3" value="" style="endArrow=oval;html=1;rounded=0;exitX=0.5;exitY=0;exitDx=0;exitDy=0;endFill=0;labelBackgroundColor=none;fontColor=default;" parent="1" edge="1">
          <mxGeometry width="50" height="50" relative="1" as="geometry">
            <mxPoint x="174.2500000000001" y="495" as="sourcePoint" />
            <mxPoint x="165" y="480" as="targetPoint" />
            <Array as="points">
              <mxPoint x="174.25" y="485" />
            </Array>
          </mxGeometry>
        </mxCell>
        <mxCell id="PdAzIgDWlpYNX6qkT6jr-6" value="" style="endArrow=oval;html=1;rounded=0;endFill=0;" parent="1" edge="1">
          <mxGeometry width="50" height="50" relative="1" as="geometry">
            <mxPoint x="174.25" y="495" as="sourcePoint" />
            <mxPoint x="156.75" y="495" as="targetPoint" />
          </mxGeometry>
        </mxCell>
        <mxCell id="PdAzIgDWlpYNX6qkT6jr-7" value="" style="endArrow=oval;html=1;rounded=0;endFill=0;" parent="1" edge="1">
          <mxGeometry width="50" height="50" relative="1" as="geometry">
            <mxPoint x="174.25" y="509.52" as="sourcePoint" />
            <mxPoint x="156.75" y="509.52" as="targetPoint" />
          </mxGeometry>
        </mxCell>
        <mxCell id="PdAzIgDWlpYNX6qkT6jr-8" value="" style="endArrow=oval;html=1;rounded=0;endFill=0;exitX=0;exitY=1;exitDx=0;exitDy=0;" parent="1" edge="1">
          <mxGeometry width="50" height="50" relative="1" as="geometry">
            <mxPoint x="180" y="520" as="sourcePoint" />
            <mxPoint x="181" y="540" as="targetPoint" />
          </mxGeometry>
        </mxCell>
        <mxCell id="PdAzIgDWlpYNX6qkT6jr-9" value="" style="endArrow=oval;html=1;rounded=0;endFill=0;" parent="1" edge="1">
          <mxGeometry width="50" height="50" relative="1" as="geometry">
            <mxPoint x="275" y="520" as="sourcePoint" />
            <mxPoint x="285" y="530" as="targetPoint" />
          </mxGeometry>
        </mxCell>
        <mxCell id="PdAzIgDWlpYNX6qkT6jr-10" value="" style="endArrow=oval;html=1;rounded=0;endFill=0;exitX=0.009;exitY=0.265;exitDx=0;exitDy=0;exitPerimeter=0;" parent="1" source="DFJkzAto43T6tOax5DAH-37" edge="1">
          <mxGeometry width="50" height="50" relative="1" as="geometry">
            <mxPoint x="290" y="472.52" as="sourcePoint" />
            <mxPoint x="285" y="470" as="targetPoint" />
          </mxGeometry>
        </mxCell>
        <mxCell id="PdAzIgDWlpYNX6qkT6jr-11" value="Tipo" style="text;html=1;align=center;verticalAlign=middle;resizable=0;points=[];autosize=1;strokeColor=none;fillColor=none;labelBackgroundColor=none;" parent="1" vertex="1">
          <mxGeometry x="268.75" y="443" width="50" height="30" as="geometry" />
        </mxCell>
        <mxCell id="GzG1-bQiRBQ7sTFtrRv--4" value="" style="endArrow=oval;html=1;rounded=0;endFill=0;" parent="1" edge="1">
          <mxGeometry width="50" height="50" relative="1" as="geometry">
            <mxPoint x="1005" y="512" as="sourcePoint" />
            <mxPoint x="1000" y="532" as="targetPoint" />
          </mxGeometry>
        </mxCell>
        <mxCell id="GzG1-bQiRBQ7sTFtrRv--5" value="" style="endArrow=oval;html=1;rounded=0;exitX=0;exitY=1;exitDx=0;exitDy=0;endFill=0;" parent="1" target="4EoIY29dNoBSYB-6nft4-48" edge="1">
          <mxGeometry width="50" height="50" relative="1" as="geometry">
            <mxPoint x="935" y="502" as="sourcePoint" />
            <mxPoint x="900" y="487" as="targetPoint" />
          </mxGeometry>
        </mxCell>
        <mxCell id="GzG1-bQiRBQ7sTFtrRv--6" style="edgeStyle=orthogonalEdgeStyle;rounded=0;orthogonalLoop=1;jettySize=auto;html=1;exitX=1;exitY=0.5;exitDx=0;exitDy=0;entryX=0.093;entryY=1.033;entryDx=0;entryDy=0;entryPerimeter=0;endArrow=none;endFill=0;" parent="1" source="E5ixjJf9oxTP6WnFrqkC-2" target="4EoIY29dNoBSYB-6nft4-25" edge="1">
          <mxGeometry relative="1" as="geometry" />
        </mxCell>
        <mxCell id="GzG1-bQiRBQ7sTFtrRv--7" value="(1,1)" style="text;html=1;align=center;verticalAlign=middle;resizable=0;points=[];autosize=1;strokeColor=none;fillColor=none;" parent="1" vertex="1">
          <mxGeometry x="905" y="557" width="50" height="30" as="geometry" />
        </mxCell>
        <mxCell id="GzG1-bQiRBQ7sTFtrRv--10" value="(0,1)" style="text;html=1;align=center;verticalAlign=middle;resizable=0;points=[];autosize=1;strokeColor=none;fillColor=none;fontSize=10;" parent="1" vertex="1">
          <mxGeometry x="1025" y="530" width="40" height="30" as="geometry" />
        </mxCell>
        <mxCell id="GzG1-bQiRBQ7sTFtrRv--11" value="(0,1)" style="text;html=1;align=center;verticalAlign=middle;resizable=0;points=[];autosize=1;strokeColor=none;fillColor=none;fontSize=10;" parent="1" vertex="1">
          <mxGeometry x="965" y="535" width="40" height="30" as="geometry" />
        </mxCell>
        <mxCell id="GzG1-bQiRBQ7sTFtrRv--12" value="(0,1)" style="text;html=1;align=center;verticalAlign=middle;resizable=0;points=[];autosize=1;strokeColor=none;fillColor=none;fontSize=10;" parent="1" vertex="1">
          <mxGeometry x="800" y="470" width="40" height="30" as="geometry" />
        </mxCell>
        <mxCell id="GzG1-bQiRBQ7sTFtrRv--13" value="(0,1)" style="text;html=1;align=center;verticalAlign=middle;resizable=0;points=[];autosize=1;strokeColor=none;fillColor=none;fontSize=9;" parent="1" vertex="1">
          <mxGeometry x="35" y="465" width="40" height="20" as="geometry" />
        </mxCell>
        <mxCell id="GzG1-bQiRBQ7sTFtrRv--14" value="(0,1)" style="text;html=1;align=center;verticalAlign=middle;resizable=0;points=[];autosize=1;strokeColor=none;fillColor=none;fontSize=9;" parent="1" vertex="1">
          <mxGeometry x="25" y="485" width="40" height="20" as="geometry" />
        </mxCell>
        <mxCell id="GzG1-bQiRBQ7sTFtrRv--15" value="(0,1)" style="text;html=1;align=center;verticalAlign=middle;resizable=0;points=[];autosize=1;strokeColor=none;fillColor=none;fontSize=10;" parent="1" vertex="1">
          <mxGeometry x="65" y="496" width="40" height="30" as="geometry" />
        </mxCell>
        <mxCell id="GzG1-bQiRBQ7sTFtrRv--16" value="(0,1)" style="text;html=1;align=center;verticalAlign=middle;resizable=0;points=[];autosize=1;strokeColor=none;fillColor=none;fontSize=9;" parent="1" vertex="1">
          <mxGeometry x="115" y="550" width="40" height="20" as="geometry" />
        </mxCell>
        <mxCell id="GzG1-bQiRBQ7sTFtrRv--17" value="(0,1)" style="text;html=1;align=center;verticalAlign=middle;resizable=0;points=[];autosize=1;strokeColor=none;fillColor=none;fontSize=9;" parent="1" vertex="1">
          <mxGeometry x="205" y="550" width="40" height="20" as="geometry" />
        </mxCell>
        <mxCell id="GzG1-bQiRBQ7sTFtrRv--18" value="(0,1)" style="text;html=1;align=center;verticalAlign=middle;resizable=0;points=[];autosize=1;strokeColor=none;fillColor=none;fontSize=9;" parent="1" vertex="1">
          <mxGeometry x="298.75" y="540" width="40" height="20" as="geometry" />
        </mxCell>
        <mxCell id="GzG1-bQiRBQ7sTFtrRv--24" style="edgeStyle=orthogonalEdgeStyle;rounded=0;orthogonalLoop=1;jettySize=auto;html=1;exitX=0.5;exitY=0;exitDx=0;exitDy=0;entryX=0.55;entryY=1.045;entryDx=0;entryDy=0;entryPerimeter=0;endArrow=none;endFill=0;" parent="1" source="GzG1-bQiRBQ7sTFtrRv--21" edge="1">
          <mxGeometry relative="1" as="geometry">
            <mxPoint x="960" y="291.79999999999995" as="targetPoint" />
          </mxGeometry>
        </mxCell>
        <mxCell id="josv6nqJ-NxyPCe3B-aj-4" value="(1,1)" style="text;html=1;align=center;verticalAlign=middle;resizable=0;points=[];autosize=1;strokeColor=none;fillColor=none;" parent="1" vertex="1">
          <mxGeometry x="946" y="400" width="50" height="30" as="geometry" />
        </mxCell>
      </root>
    </mxGraphModel>
  </diagram>
</mxfile>
